<?xml version="1.0" encoding="utf-8"?>
<!-- Generator: Adobe Illustrator 27.5.0, SVG Export Plug-In . SVG Version: 6.00 Build 0)  -->
<svg version="1.1" id="Capa_1" xmlns="http://www.w3.org/2000/svg" xmlns:xlink="http://www.w3.org/1999/xlink" x="0px" y="0px"
	 viewBox="0 0 425.196 425.197" style="enable-background:new 0 0 425.196 425.197;" xml:space="preserve">
<g>
	<rect y="0.001" style="fill:#FFFFFF;" width="425.196" height="425.197"/>
	<g>
		<path style="fill:#40290F;" d="M117.83,100.137l3.928-3.184c2.536-2.055,4.345-3.327,5.427-3.819
			c1.082-0.491,2.072-0.659,2.968-0.505c0.897,0.155,1.668,0.512,2.313,1.069c0.645,0.559,1.743,1.794,3.292,3.706l5.729,7.07
			c1.469,1.813,2.365,3.094,2.69,3.843c0.325,0.749,0.415,1.468,0.27,2.156c-0.145,0.688-0.473,1.354-0.985,1.997
			c-0.512,0.643-1.396,1.472-2.651,2.489l-6.622,5.366L117.83,100.137z M125.878,99.336l10.763,13.281
			c0.756-0.613,1.099-1.142,1.028-1.587c-0.071-0.445-0.653-1.341-1.744-2.688l-6.357-7.844c-0.741-0.915-1.245-1.477-1.512-1.688
			c-0.267-0.211-0.553-0.292-0.859-0.244C126.892,98.615,126.452,98.871,125.878,99.336z"/>
		<path style="fill:#40290F;" d="M140.02,83.805l9.878-5.42l2.501,4.559l-3.954,2.17l2.37,4.32l3.701-2.031l2.378,4.335l-3.701,2.03
			l2.749,5.01l4.349-2.386l2.501,4.559l-10.272,5.637L140.02,83.805z"/>
		<path style="fill:#40290F;" d="M166.651,71.492l7.027,19.562l3.867-1.389l1.758,4.895l-10.227,3.673l-8.785-24.456L166.651,71.492
			z"/>
		<path style="fill:#40290F;" d="M187.063,66.114l5.29,25.441l-6.616,1.376l-5.29-25.442L187.063,66.114z"/>
		<path style="fill:#40290F;" d="M214.959,74.938l-6.751,0.291l-0.194-4.513c-0.057-1.313-0.164-2.128-0.322-2.447
			c-0.158-0.319-0.483-0.468-0.975-0.447c-0.556,0.024-0.9,0.237-1.033,0.639c-0.133,0.402-0.171,1.261-0.114,2.576l0.518,12.059
			c0.054,1.262,0.165,2.082,0.331,2.46c0.167,0.379,0.511,0.557,1.035,0.534c0.502-0.021,0.823-0.229,0.961-0.621
			c0.138-0.393,0.177-1.302,0.116-2.727l-0.14-3.264l6.751-0.29l0.043,1.012c0.116,2.688,0.008,4.602-0.323,5.741
			c-0.332,1.141-1.128,2.162-2.391,3.063c-1.262,0.901-2.845,1.394-4.748,1.476c-1.978,0.085-3.624-0.204-4.937-0.864
			c-1.314-0.661-2.206-1.616-2.678-2.865c-0.471-1.249-0.762-3.146-0.871-5.69l-0.326-7.585c-0.081-1.87-0.077-3.276,0.011-4.218
			c0.088-0.94,0.432-1.857,1.031-2.751c0.599-0.894,1.451-1.613,2.558-2.158c1.106-0.546,2.392-0.851,3.856-0.913
			c1.989-0.085,3.646,0.229,4.973,0.941c1.327,0.713,2.218,1.635,2.673,2.766c0.456,1.13,0.735,2.906,0.839,5.33L214.959,74.938z"/>
		<path style="fill:#40290F;" d="M232.635,65.22l-3.048,25.808l-6.711-0.793l3.048-25.807L232.635,65.22z"/>
		<path style="fill:#40290F;" d="M254.896,86.093c-0.72,2.51-1.29,4.27-1.708,5.279c-0.418,1.01-1.062,1.857-1.932,2.543
			c-0.871,0.685-1.902,1.106-3.094,1.266c-1.192,0.158-2.493,0.035-3.902-0.369c-1.337-0.384-2.475-0.947-3.414-1.69
			c-0.939-0.742-1.607-1.644-2.004-2.704c-0.397-1.061-0.51-2.122-0.338-3.187c0.172-1.063,0.627-2.882,1.366-5.453l1.227-4.273
			c0.721-2.509,1.29-4.269,1.708-5.278c0.418-1.01,1.062-1.858,1.933-2.543c0.87-0.686,1.901-1.107,3.094-1.266
			c1.192-0.159,2.493-0.036,3.902,0.368c1.337,0.385,2.475,0.948,3.414,1.69c0.939,0.743,1.607,1.645,2.004,2.705
			c0.397,1.06,0.509,2.122,0.337,3.186c-0.172,1.064-0.627,2.882-1.365,5.453L254.896,86.093z M250.759,76.021
			c0.333-1.162,0.482-1.924,0.447-2.285c-0.036-0.36-0.254-0.599-0.655-0.714c-0.339-0.098-0.637-0.041-0.892,0.17
			c-0.256,0.21-0.568,0.959-0.937,2.244l-3.349,11.663c-0.417,1.45-0.614,2.362-0.593,2.735c0.02,0.373,0.247,0.622,0.679,0.746
			c0.442,0.127,0.781,0.013,1.017-0.343c0.236-0.355,0.564-1.268,0.987-2.739L250.759,76.021z"/>
		<path style="fill:#40290F;" d="M284.21,83.11l-7.981,15.425c-0.905,1.748-1.598,2.947-2.078,3.597
			c-0.48,0.648-1.194,1.201-2.141,1.657c-0.947,0.455-1.979,0.639-3.095,0.549c-1.116-0.09-2.297-0.457-3.542-1.101
			c-1.378-0.713-2.476-1.571-3.295-2.573c-0.819-1.002-1.301-2.004-1.444-3.006c-0.144-1.003-0.054-1.935,0.272-2.796
			c0.325-0.862,1.162-2.595,2.509-5.199l7.067-13.656l6.001,3.105l-8.955,17.306c-0.521,1.008-0.8,1.68-0.836,2.017
			c-0.036,0.337,0.113,0.592,0.445,0.764c0.38,0.196,0.705,0.169,0.974-0.083c0.269-0.253,0.701-0.954,1.296-2.104l8.8-17.007
			L284.21,83.11z"/>
		<path style="fill:#40290F;" d="M300.85,104.888l-4.92-3.896l1.196-1.51c0.558-0.705,0.851-1.203,0.878-1.496
			c0.027-0.292-0.106-0.555-0.4-0.787c-0.319-0.253-0.663-0.313-1.033-0.183c-0.37,0.131-0.764,0.46-1.183,0.989
			c-0.539,0.68-0.853,1.265-0.941,1.754c-0.097,0.483,0.073,1.294,0.511,2.432c1.249,3.267,1.825,5.592,1.727,6.975
			c-0.099,1.382-0.938,3.072-2.52,5.068c-1.149,1.451-2.166,2.386-3.05,2.805c-0.885,0.419-1.998,0.476-3.339,0.171
			c-1.342-0.305-2.659-0.969-3.951-1.992c-1.418-1.123-2.415-2.35-2.993-3.68c-0.577-1.331-0.692-2.535-0.345-3.611
			c0.347-1.076,1.126-2.377,2.334-3.904l1.056-1.334l4.92,3.896l-1.963,2.479c-0.604,0.764-0.924,1.31-0.958,1.637
			c-0.035,0.328,0.124,0.632,0.477,0.91c0.353,0.279,0.724,0.349,1.116,0.208c0.391-0.141,0.802-0.483,1.234-1.029
			c0.95-1.199,1.407-2.113,1.372-2.741c-0.043-0.635-0.381-1.906-1.014-3.813c-0.626-1.916-0.997-3.24-1.112-3.973
			c-0.116-0.733-0.039-1.56,0.232-2.479c0.271-0.919,0.834-1.919,1.691-3.001c1.236-1.561,2.338-2.544,3.308-2.949
			c0.97-0.406,2.061-0.46,3.272-0.163c1.211,0.297,2.446,0.944,3.705,1.94c1.375,1.09,2.372,2.24,2.989,3.452
			c0.617,1.212,0.815,2.28,0.595,3.205c-0.22,0.924-0.971,2.196-2.253,3.814L300.85,104.888z"/>
	</g>
	<g>
		<path style="fill:#40290F;" d="M157.813,308.623l5.989,3.094c1.892,0.978,3.249,1.865,4.072,2.663
			c0.822,0.798,1.301,1.8,1.436,3.007c0.135,1.208-0.312,2.809-1.343,4.804c-0.697,1.35-1.395,2.181-2.092,2.494
			c-0.698,0.314-1.743,0.291-3.136-0.067c1.226,1.031,1.898,2.038,2.017,3.022c0.118,0.982-0.21,2.227-0.987,3.729l-1.105,2.14
			c-0.806,1.561-1.581,2.624-2.326,3.191c-0.745,0.567-1.578,0.787-2.5,0.661c-0.922-0.127-2.591-0.815-5.005-2.062l-6.945-3.587
			L157.813,308.623z M157.268,324.402l-3.337,6.46c0.861,0.408,1.469,0.554,1.825,0.437c0.355-0.117,0.774-0.642,1.255-1.573
			l1.112-2.153c0.511-0.989,0.715-1.642,0.614-1.959C158.637,325.296,158.147,324.893,157.268,324.402z M161.776,315.675
			l-2.652,5.134c0.262,0.123,0.464,0.222,0.606,0.295c0.589,0.305,1.04,0.354,1.351,0.148c0.311-0.207,0.821-0.995,1.528-2.363
			c0.373-0.723,0.568-1.264,0.585-1.622c0.017-0.359-0.063-0.632-0.237-0.818C162.783,316.261,162.389,316.003,161.776,315.675z"/>
		<path style="fill:#40290F;" d="M188.65,321.121l-3.332,26.061l-6.647-1.874l0.919-4.594l-2.327-0.656l-1.658,4.386l-6.724-1.895
			l10.369-24.076L188.65,321.121z M180.67,336.232c0.469-2.926,1.126-6.52,1.971-10.784c-2.013,4.603-3.416,7.987-4.209,10.153
			L180.67,336.232z"/>
		<path style="fill:#40290F;" d="M213.135,324.111l-4.755,11.405l3.152,14.534l-6.962-0.53l-1.884-11.314l-0.845,11.107
			l-6.738-0.513l1.972-25.912l6.738,0.513l-0.766,10.067l3.767-9.839L213.135,324.111z"/>
		<path style="fill:#40290F;" d="M218.454,323.744l11.204-1.2l0.554,5.171l-4.484,0.48l0.525,4.899l4.197-0.449l0.527,4.915
			l-4.197,0.45l0.608,5.682l4.932-0.528l0.554,5.171l-11.65,1.248L218.454,323.744z"/>
		<path style="fill:#40290F;" d="M235.687,321.489l4.579-1.382c3.053-0.921,5.155-1.427,6.307-1.518
			c1.152-0.09,2.214,0.246,3.188,1.008c0.973,0.763,1.78,2.204,2.419,4.325c0.585,1.936,0.736,3.31,0.456,4.121
			s-1.107,1.496-2.481,2.056c1.376-0.068,2.365,0.098,2.966,0.497c0.601,0.399,1.023,0.807,1.265,1.22
			c0.242,0.413,0.666,1.624,1.272,3.631l1.979,6.561l-6.008,1.814l-2.494-8.268c-0.402-1.331-0.756-2.125-1.061-2.379
			c-0.306-0.254-0.904-0.247-1.796,0.022l3.385,11.217l-6.469,1.952L235.687,321.489z M243.44,323.794l1.669,5.531
			c0.727-0.219,1.207-0.473,1.438-0.761c0.232-0.288,0.182-0.98-0.148-2.076l-0.413-1.367c-0.238-0.789-0.535-1.264-0.891-1.425
			C244.74,323.535,244.188,323.568,243.44,323.794z"/>
		<path style="fill:#40290F;" d="M268.608,307.881l3.425,16.955l4.412,8.307l-5.529,2.936l-4.412-8.308l-11.973-12.415l5.483-2.911
			c3.235,4.024,5.32,6.782,6.253,8.274c-0.97-2.625-2.017-5.934-3.141-9.928L268.608,307.881z"/>
	</g>
	<g>
		<g>
			<path style="fill:#40290F;" d="M212.601,393.5c-100.802,0-182.809-82.01-182.809-182.809
				c0-100.799,82.007-182.811,182.809-182.811c100.797,0,182.804,82.012,182.804,182.811
				C395.404,311.491,313.397,393.5,212.601,393.5z M212.601,41.848c-93.104,0-168.841,75.742-168.841,168.844
				c0,93.1,75.737,168.842,168.841,168.842c93.096,0,168.836-75.742,168.836-168.842C381.436,117.59,305.696,41.848,212.601,41.848z
				"/>
		</g>
	</g>
	<g>
		<path style="fill:#40290F;" d="M212.6,374.758c-90.463,0-164.068-73.596-164.068-164.068c0-90.467,73.605-164.068,164.068-164.068
			c90.469,0,164.066,73.602,164.066,164.068C376.666,301.163,303.068,374.758,212.6,374.758z M212.6,53.702
			c-86.564,0-156.992,70.424-156.992,156.988c0,86.564,70.428,156.99,156.992,156.99c86.561,0,156.986-70.426,156.986-156.99
			C369.586,124.126,299.16,53.702,212.6,53.702z"/>
	</g>
	<g>
		<path style="fill:#40290F;" d="M325.139,277.131h6.816c11.08-19.748,17.412-42.506,17.412-66.715
			c0-24.445-6.453-47.41-17.736-67.293h-6.832c11.845,19.678,18.667,42.701,18.667,67.293
			C343.465,234.766,336.772,257.582,325.139,277.131z"/>
		<path style="fill:#40290F;" d="M100.056,277.131c-11.633-19.549-18.326-42.365-18.326-66.715c0-24.592,6.823-47.615,18.666-67.293
			h-6.828c-11.284,19.883-17.737,42.848-17.737,67.293c0,24.209,6.332,46.967,17.414,66.715H100.056z"/>
	</g>
</g>
<g>
	<g>
		<linearGradient id="SVGID_1_" gradientUnits="userSpaceOnUse" x1="218.5412" y1="301.2725" x2="218.5412" y2="218.1446">
			<stop  offset="0" style="stop-color:#C1791F"/>
			<stop  offset="0.0335" style="stop-color:#C57D21"/>
			<stop  offset="0.2681" style="stop-color:#DC962D"/>
			<stop  offset="0.5062" style="stop-color:#ECA837"/>
			<stop  offset="0.7483" style="stop-color:#F5B43D"/>
			<stop  offset="1" style="stop-color:#F6B63E"/>
		</linearGradient>
		<path style="fill:url(#SVGID_1_);" d="M302.271,259.711c0,22.954-37.487,41.561-83.73,41.561
			c-46.239,0-83.729-18.607-83.729-41.561c0-22.955,37.49-41.566,83.729-41.566C264.784,218.145,302.271,236.756,302.271,259.711z"
			/>
		<path style="opacity:0.3;fill:#B05224;" d="M218.54,295.03c-44.081,0-80.213-16.913-83.487-38.376
			c-0.164,1.05-0.242,2.112-0.242,3.184c0,22.956,37.49,41.563,83.729,41.563c46.243,0,83.73-18.607,83.73-41.563
			c0-1.072-0.081-2.134-0.242-3.184C298.753,278.117,262.625,295.03,218.54,295.03z"/>
		<g style="opacity:0.5;">
			<path style="fill:#F5EC7C;" d="M265.227,263.212c0,0,6.569-17.035,1.046-37.556c-0.85-0.329-1.722-0.649-2.599-0.962
				c-3.223-1.027-6.599-1.945-10.107-2.747C260.359,232.981,268.462,247.862,265.227,263.212z"/>
			<path style="fill:#F5EC7C;" d="M199.506,219.224c13.169,12.215,31.693,30.81,30.934,52.124c0,0,8.325-24.911-15.587-53.162
				C209.599,218.3,204.468,218.651,199.506,219.224z"/>
			<path style="fill:#F5EC7C;" d="M203.33,279.77c0,0-6.078-29.75-36.177-52.877c-3.2,1.235-6.215,2.588-9.021,4.038
				C173.048,241.46,198.101,260.295,203.33,279.77z"/>
		</g>
		<g>
			<path style="fill:#DB8B00;" d="M265.227,263.212c0,0,10.403-15.715,4.882-36.236c-4.046-1.573-8.383-2.96-12.975-4.15
				C263.974,233.901,268.508,247.659,265.227,263.212z"/>
			<path style="fill:#DB8B00;" d="M202.966,218.876c13.185,12.207,28.241,30.959,27.474,52.472c0,0,12.167-24.936-11.784-53.199
				c-0.034,0-0.078-0.004-0.115-0.004C213.217,218.145,208.015,218.404,202.966,218.876z"/>
			<path style="fill:#DB8B00;" d="M203.33,279.027c0,0-2.395-29.831-33.577-53.084c-3.311,1.178-6.439,2.476-9.367,3.876
				C175.047,240.098,197.912,258.852,203.33,279.027z"/>
		</g>
	</g>
	<g>
		
			<radialGradient id="SVGID_00000143580487721103478010000004106031865428271024_" cx="648.4689" cy="-725.8497" r="59.884" gradientTransform="matrix(0.9534 -0.3016 0.3016 0.9534 -219.7877 1071.7535)" gradientUnits="userSpaceOnUse">
			<stop  offset="0" style="stop-color:#FFFFFF"/>
			<stop  offset="0.2768" style="stop-color:#FDFDFE"/>
			<stop  offset="0.5609" style="stop-color:#F4F5F6"/>
			<stop  offset="0.8474" style="stop-color:#E4E5E9"/>
			<stop  offset="1" style="stop-color:#D8DADE"/>
		</radialGradient>
		<path style="fill:url(#SVGID_00000143580487721103478010000004106031865428271024_);" d="M233.091,153.86
			c-3.624-11.458-15.847-17.808-27.305-14.184c-3.62,1.145-6.729,3.151-9.174,5.719c-5.132-14.553-20.92-22.51-35.737-17.824
			c-14.589,4.614-22.902,19.789-19.185,34.434c-2.996-0.371-6.12-0.121-9.189,0.851c-11.456,3.623-17.806,15.847-14.181,27.304
			c3.366,10.646,14.164,16.878,24.868,14.799c0,0.048,0,0.071,0,0.071c14.919,12.999,22.724,34.505,22.724,34.505
			c10.584,6.26,22.43,4.317,30.894,1.641c9.688-3.063,19.855-7.933,24.326-19.104c0,0-5.968-22.04-1.261-41.24
			C230.715,176.846,236.612,164.991,233.091,153.86z"/>
		<path style="opacity:0.3;fill:#B0AFB5;" d="M191.226,223.835c-9.264,2.929-22.145,5.071-33.795-1.372
			c5.603,9.142,8.481,17.071,8.481,17.071c10.584,6.26,22.43,4.317,30.894,1.641c9.688-3.063,19.855-7.933,24.326-19.104
			c0,0-2.235-8.253-2.888-19.058C213.115,215.114,201.913,220.457,191.226,223.835z"/>
		<path style="opacity:0.5;fill:#B0AFB5;" d="M197.285,147.524c2.554-2.459,6.913-5.01,10.59-5.962
			c10.439-2.701,20.596,4.668,25.415,12.985c-0.065-0.231-0.127-0.459-0.199-0.686c-3.624-11.458-15.847-17.808-27.305-14.184
			c-3.298,1.044-6.842,3.472-9.174,5.719C196.932,146.412,197.124,147.017,197.285,147.524z"/>
		<path style="opacity:0.5;fill:#B0AFB5;" d="M119.278,191.226c-3.139-11.597,3.722-23.544,15.321-26.68
			c3.106-0.842,6.238-0.958,9.22-0.464c-3.098-14.785,5.848-29.598,20.618-33.592c11.065-2.992,22.363,0.917,29.343,9.094
			c-6.807-10.74-20.207-16.007-32.9-11.993c-14.59,4.614-22.902,19.788-19.185,34.43c-2.995-0.368-6.12-0.121-9.189,0.851
			c-11.454,3.622-17.805,15.849-14.181,27.304c0.687,2.173,1.688,4.159,2.93,5.931C120.419,194.596,119.747,192.965,119.278,191.226
			z"/>
		<g style="opacity:0.5;">
			<g>
				<path style="fill:#B0AFB5;" d="M201.824,209.417c0,0-8.88-29.235,1.494-41.307c2.049-2.383,3.66-1.604,4.495-0.745
					c1.336,1.38,1.051,3.796-0.178,5.535C205.143,176.43,197.249,185.941,201.824,209.417z"/>
				<path style="fill:#B0AFB5;" d="M175.849,217.632c0,0-9.548-29.024-24.978-32.935c-3.045-0.771-3.916,0.793-4.105,1.975
					c-0.298,1.896,1.324,3.71,3.33,4.427C154.161,192.555,166.09,195.796,175.849,217.632z"/>
			</g>
			<g>
				<path style="fill:#B0AFB5;" d="M192.121,212.486c0,0-19.051-42.512-3.31-57.301c0,0,3.086-2.677,5.002-0.958
					c1.919,1.721,2.079,4.14,0.268,5.997C191.645,162.72,181.247,177.942,192.121,212.486z"/>
				<path style="fill:#B0AFB5;" d="M185.55,214.564c0,0-8.86-45.736-30.241-48.783c0,0-4.064-0.417-4.645,2.093
					c-0.581,2.512,0.679,4.583,3.227,5.06C157.323,173.576,174.583,180.05,185.55,214.564z"/>
			</g>
		</g>
	</g>
</g>
</svg>
