<!DOCTYPE svg PUBLIC "-//W3C//DTD SVG 1.1//EN" "http://www.w3.org/Graphics/SVG/1.1/DTD/svg11.dtd">
<!-- Uploaded to: SVG Repo, www.svgrepo.com, Transformed by: SVG Repo Mixer Tools -->
<svg width="800px" height="800px" viewBox="-102.4 -102.4 1228.80 1228.80" class="icon" version="1.1" xmlns="http://www.w3.org/2000/svg" fill="#000000" transform="matrix(1, 0, 0, 1, 0, 0)rotate(0)">
<g id="SVGRepo_bgCarrier" stroke-width="0">
<path transform="translate(-102.4, -102.4), scale(38.4)" d="M16,28.821743108113022C19.328887044453438,29.22350379561178,22.396225977650918,27.13763664382889,24.80166639441824,24.80166639441824C27.248008096149714,22.42597610697509,28.969248428451557,19.402032843835794,29.203053032650665,16C29.45409714085713,12.347119406414464,28.86527416205788,8.300073554228652,26.100733236821945,5.899266763178058C23.434003533861794,3.5834020485992113,19.531855805276347,4.559997898273989,16,4.534089297056198C12.423335696056364,4.507851994558642,8.4882805279728,3.448909357765191,5.749979934707186,5.7499799347071825C2.885504818101751,8.157078492627953,1.6395879250663685,12.327547684761448,2.355433686033768,15.999999999999998C2.9951300826262512,19.281788676852706,6.657495493071587,20.616289660949615,9.0940706442036,22.905929355796395C11.390354366216924,25.06373776901507,12.871660666826266,28.44418636183669,16,28.821743108113022" fill="#6da7ba" strokewidth="0"/>
</g>
<g id="SVGRepo_tracerCarrier" stroke-linecap="round" stroke-linejoin="round"/>
<g id="SVGRepo_iconCarrier">
<path d="M845.4 383H758c-16.6 0-30-13.4-30-30s13.4-30 30-30h87.4c16.6 0 30 13.4 30 30s-13.5 30-30 30zM662.3 383H263.1c-16.6 0-30-13.4-30-30s13.4-30 30-30h399.2c16.6 0 30 13.4 30 30s-13.5 30-30 30z" fill="#c3feea"/>
<path d="M433.2 873.2m-55 0a55 55 0 1 0 110 0 55 55 0 1 0-110 0Z" fill="#FFB89A"/>
<path d="M854.5 873.2m-55 0a55 55 0 1 0 110 0 55 55 0 1 0-110 0Z" fill="#FFB89A"/>
<path d="M889.8 722.1h-511c-37.7 0-68.4-30.7-68.4-68.4v-1.4L274.5 270v-0.2-0.2l-6-55.4c-8.6-86.8-57.6-117.5-97.3-128.1L101.5 69c-16.1-4-32.3 5.9-36.3 22s5.9 32.3 22 36.3l68.9 16.9c16.2 4.3 28.1 12.4 36.6 24.7 8.6 12.4 14 29.7 16.1 51.4l6 55.6 35.6 379.3c0.8 70.1 58.1 126.9 128.4 126.9h511c16.6 0 30-13.4 30-30s-13.4-30-30-30z" fill="#45484C"/>
<path d="M840.3 197.8H381c-16.6 0-30 13.4-30 30s13.4 30 30 30h459.3c30.2 0 54.9 24.3 55.5 54.3l-19.9 226.5-0.1 1.3v1.3c0 30.6-24.9 55.5-55.5 55.5H436c-16.6 0-30 13.4-30 30s13.4 30 30 30h384.3c63.2 0 114.7-51.1 115.5-114.1L955.7 316l0.1-1.3v-1.3c0-63.8-51.8-115.6-115.5-115.6z" fill="#45484C"/>
<path d="M408.5 842.1c7.2 0 13.1 5.9 13.1 13.1s-5.9 13.1-13.1 13.1-13.1-5.9-13.1-13.1 5.9-13.1 13.1-13.1m0-60c-40.4 0-73.1 32.7-73.1 73.1s32.7 73.1 73.1 73.1 73.1-32.7 73.1-73.1-32.7-73.1-73.1-73.1zM823.1 842.1c7.2 0 13.1 5.9 13.1 13.1s-5.9 13.1-13.1 13.1-13.1-5.9-13.1-13.1 5.9-13.1 13.1-13.1m0-60c-40.4 0-73.1 32.7-73.1 73.1s32.7 73.1 73.1 73.1 73.1-32.7 73.1-73.1-32.7-73.1-73.1-73.1z" fill="#45484C"/>
</g>
</svg>